<svg xmlns="http://www.w3.org/2000/svg" viewBox="0 0 320 240">
  <defs>
    <linearGradient id="body" x1="0" y1="0" x2="1" y2="1">
      <stop offset="0" stop-color="#fff9ff"/>
      <stop offset=".42" stop-color="#cda8ef"/>
      <stop offset="1" stop-color="#7541bd"/>
    </linearGradient>
    <linearGradient id="wing" x1="0" y1="0" x2="1" y2="1">
      <stop offset="0" stop-color="#e9d7fb" stop-opacity=".95"/>
      <stop offset="1" stop-color="#8250cc" stop-opacity=".78"/>
    </linearGradient>
    <filter id="soft" x="-30%" y="-30%" width="160%" height="160%"><feGaussianBlur stdDeviation="3"/></filter>
  </defs>
  <g opacity=".36" fill="#b58ae3">
    <path d="M171 192c-31 0-63 10-89 29 10-32 37-53 68-56-18-19-26-43-22-69 19 21 32 43 43 68 7-34 25-62 52-83-2 39-14 72-36 99 28-13 56-14 85-3-34 12-65 17-101 15z"/>
  </g>
  <g transform="translate(28 8)">
    <path d="M115 91C74 69 43 67 6 73c37 6 69 18 103 38z" fill="#43314f"/>
    <path d="M153 86C187 36 239 17 300 23c-49 16-84 43-113 82z" fill="url(#wing)"/>
    <path d="M161 91c50 7 94 27 130 61-48-18-89-22-129-14z" fill="url(#wing)" opacity=".9"/>
    <path d="M135 88c9-22 31-34 54-28 29 8 43 40 31 69-12 28-44 49-75 36-30-13-35-48-10-77z" fill="url(#body)"/>
    <path d="M151 101c24 10 45 4 65-12-2 33-16 58-43 72-23-11-31-36-22-60z" fill="#7750c1" opacity=".52"/>
    <path d="M161 164c8 19 7 36-2 52 18-13 30-28 36-47z" fill="#6840af"/>
    <path d="M148 70c7-14 24-23 40-19 13 4 21 17 19 30-10 7-20 11-33 12-13-3-23-11-26-23z" fill="#8f63cf"/>
    <circle cx="185" cy="68" r="7" fill="#202035"/>
    <circle cx="187" cy="66" r="2.2" fill="white"/>
    <path d="M149 91c-7 16-9 31-3 45" stroke="#fff" stroke-width="7" stroke-linecap="round" opacity=".55"/>
  </g>
  <g fill="#a965e6">
    <path d="M285 93l5 11 11 5-11 5-5 11-5-11-11-5 11-5z"/>
    <path d="M260 139l3 7 7 3-7 3-3 7-3-7-7-3 7-3z" opacity=".7"/>
  </g>
</svg>
